<svg width="19" height="22" viewBox="0 0 19 22" fill="none" xmlns="http://www.w3.org/2000/svg">
<path d="M9.5 22C10.9979 22 12.213 20.7689 12.213 19.25H6.787C6.787 20.7689 8.00206 22 9.5 22ZM18.6348 15.5671C17.8154 14.6751 16.2823 13.3332 16.2823 8.9375C16.2823 5.59883 13.9718 2.92617 10.8563 2.27047V1.375C10.8563 0.615742 10.249 0 9.5 0C8.75103 0 8.14371 0.615742 8.14371 1.375V2.27047C5.02823 2.92617 2.7177 5.59883 2.7177 8.9375C2.7177 13.3332 1.18456 14.6751 0.365184 15.5671C0.110721 15.8443 -0.00209121 16.1756 2.93222e-05 16.5C0.00469449 17.2047 0.550519 17.875 1.36141 17.875H17.6386C18.4495 17.875 18.9957 17.2047 19 16.5C19.0021 16.1756 18.8893 15.8439 18.6348 15.5671V15.5671Z" fill="black" fill-opacity="0.5"/>
</svg>
