<svg width="20" height="20" viewBox="0 0 20 20" fill="none" xmlns="http://www.w3.org/2000/svg">
<path d="M13.125 1.25H11.7675C11.51 0.5225 10.815 0 10 0C9.185 0 8.49 0.5225 8.23125 1.25H6.875C6.53 1.25 6.25 1.53 6.25 1.875V4.375C6.25 4.72 6.53 5 6.875 5H13.125C13.47 5 13.75 4.72 13.75 4.375V1.875C13.75 1.53 13.47 1.25 13.125 1.25Z" fill="black" fill-opacity="0.5"/>
<path d="M16.25 2.5H15V4.375C15 5.40875 14.1587 6.25 13.125 6.25H6.875C5.84125 6.25 5 5.40875 5 4.375V2.5H3.75C3.06125 2.5 2.5 3.06125 2.5 3.75V18.75C2.5 19.4513 3.04875 20 3.75 20H16.25C16.9513 20 17.5 19.4513 17.5 18.75V3.75C17.5 3.04875 16.9513 2.5 16.25 2.5ZM9.8175 13.5675L7.3175 16.0675C7.195 16.1888 7.035 16.25 6.875 16.25C6.715 16.25 6.555 16.1888 6.4325 16.0675L5.1825 14.8175C4.93875 14.5738 4.93875 14.1775 5.1825 13.9338C5.42625 13.69 5.8225 13.69 6.06625 13.9338L6.875 14.7413L8.9325 12.6838C9.17625 12.44 9.5725 12.44 9.81625 12.6838C10.06 12.9275 10.0613 13.3225 9.8175 13.5675ZM9.8175 8.5675L7.3175 11.0675C7.195 11.1888 7.035 11.25 6.875 11.25C6.715 11.25 6.555 11.1888 6.4325 11.0675L5.1825 9.8175C4.93875 9.57375 4.93875 9.1775 5.1825 8.93375C5.42625 8.69 5.8225 8.69 6.06625 8.93375L6.875 9.74125L8.9325 7.68375C9.17625 7.44 9.5725 7.44 9.81625 7.68375C10.06 7.9275 10.0613 8.3225 9.8175 8.5675ZM14.375 15H11.875C11.53 15 11.25 14.72 11.25 14.375C11.25 14.03 11.53 13.75 11.875 13.75H14.375C14.72 13.75 15 14.03 15 14.375C15 14.72 14.72 15 14.375 15ZM14.375 10H11.875C11.53 10 11.25 9.72 11.25 9.375C11.25 9.03 11.53 8.75 11.875 8.75H14.375C14.72 8.75 15 9.03 15 9.375C15 9.72 14.72 10 14.375 10Z" fill="black" fill-opacity="0.5"/>
</svg>
