<svg width="21" height="20" viewBox="0 0 21 20" fill="none" xmlns="http://www.w3.org/2000/svg">
<g clip-path="url(#clip0)">
<path d="M10.7933 9.63406C12.1168 9.63406 13.2629 9.15936 14.1993 8.22278C15.1358 7.28635 15.6105 6.14057 15.6105 4.81688C15.6105 3.49364 15.1358 2.34771 14.1992 1.41097C13.2626 0.474699 12.1167 0 10.7933 0C9.4696 0 8.32382 0.474699 7.38739 1.41113C6.45096 2.34756 5.97611 3.49349 5.97611 4.81688C5.97611 6.14057 6.45096 7.2865 7.38755 8.22293C8.32413 9.1592 9.47006 9.63406 10.7933 9.63406Z" fill="black" fill-opacity="0.5"/>
<path d="M19.2221 15.3791C19.1951 14.9894 19.1404 14.5643 19.06 14.1154C18.9788 13.6631 18.8743 13.2356 18.7492 12.8448C18.62 12.4409 18.4442 12.042 18.2269 11.6598C18.0014 11.2631 17.7365 10.9176 17.4392 10.6333C17.1284 10.3359 16.7479 10.0968 16.3078 9.92242C15.8693 9.74893 15.3833 9.66104 14.8634 9.66104C14.6592 9.66104 14.4618 9.74481 14.0805 9.99307C13.8458 10.1461 13.5713 10.3231 13.2649 10.5189C13.0029 10.6858 12.648 10.8422 12.2096 10.9838C11.7819 11.1222 11.3476 11.1924 10.919 11.1924C10.4904 11.1924 10.0563 11.1222 9.62814 10.9838C9.19021 10.8424 8.83529 10.686 8.57361 10.519C8.27011 10.3251 7.99545 10.1481 7.75727 9.99292C7.37641 9.74466 7.17881 9.66089 6.97465 9.66089C6.45463 9.66089 5.96879 9.74893 5.53041 9.92258C5.09065 10.0967 4.70994 10.3358 4.39882 10.6335C4.10173 10.9179 3.83669 11.2632 3.61147 11.6598C3.39434 12.042 3.21856 12.4407 3.08916 12.8449C2.96419 13.2357 2.85967 13.6631 2.77849 14.1154C2.69808 14.5637 2.64346 14.9889 2.61645 15.3796C2.5899 15.7622 2.57647 16.1594 2.57647 16.5606C2.57647 17.6046 2.90835 18.4498 3.56279 19.0731C4.20915 19.6882 5.0644 20.0002 6.10444 20.0002H15.7345C16.7746 20.0002 17.6295 19.6883 18.276 19.0731C18.9306 18.4502 19.2625 17.6049 19.2625 16.5604C19.2623 16.1574 19.2488 15.76 19.2221 15.3791Z" fill="black" fill-opacity="0.5"/>
</g>
<defs>
<clipPath id="clip0">
<rect width="19.9999" height="20" fill="white" transform="translate(0.935852)"/>
</clipPath>
</defs>
</svg>
